<svg width="20" height="20" viewBox="0 0 20 20" fill="none" xmlns="http://www.w3.org/2000/svg">
<g clip-path="url(#clip0_1_158)">
<circle cx="10" cy="10" r="10" fill="#A3B6D9"/>
<path d="M9.07306 12.1514C9.07306 11.5134 9.15053 11.0053 9.30548 10.627C9.46043 10.2488 9.74298 9.87734 10.1531 9.51276C10.5679 9.14362 10.8436 8.84511 10.9803 8.61725C11.117 8.38483 11.1854 8.14101 11.1854 7.8858C11.1854 7.11562 10.8299 6.73053 10.119 6.73053C9.78172 6.73053 9.51056 6.83535 9.30548 7.04498C9.10496 7.25006 9.00014 7.53489 8.99103 7.89948H7.00861C7.01772 7.02903 7.29799 6.34772 7.84943 5.85553C8.40542 5.36334 9.16193 5.11725 10.119 5.11725C11.0851 5.11725 11.8348 5.35195 12.368 5.82135C12.9012 6.28619 13.1678 6.94472 13.1678 7.79694C13.1678 8.18431 13.0812 8.55117 12.908 8.89752C12.7348 9.23932 12.4318 9.61985 11.9988 10.0391L11.4451 10.5655C11.0988 10.8982 10.9005 11.2878 10.8504 11.7344L10.8231 12.1514H9.07306ZM8.87482 14.2501C8.87482 13.9447 8.97736 13.6941 9.18243 13.4981C9.39207 13.2976 9.65867 13.1973 9.98224 13.1973C10.3058 13.1973 10.5701 13.2976 10.7752 13.4981C10.9848 13.6941 11.0897 13.9447 11.0897 14.2501C11.0897 14.5508 10.9871 14.7992 10.782 14.9952C10.5815 15.1911 10.3149 15.2891 9.98224 15.2891C9.64956 15.2891 9.38068 15.1911 9.1756 14.9952C8.97508 14.7992 8.87482 14.5508 8.87482 14.2501Z" fill="white"/>
</g>
<defs>
<clipPath id="clip0_1_158">
<rect width="20" height="20" fill="white"/>
</clipPath>
</defs>
</svg>
