<svg width="101" height="17" viewBox="0 0 101 17" fill="none" xmlns="http://www.w3.org/2000/svg">
<path fill-rule="evenodd" clip-rule="evenodd" d="M20.0543 12.3446C20.2111 12.4675 20.4122 12.5289 21.128 12.5289H24.1012C24.8169 12.549 25.0181 12.4675 25.1748 12.3446C25.376 12.1604 25.6672 11.649 25.6672 8.02464C25.6672 4.38123 25.376 3.86876 25.1748 3.70464C25.0181 3.5617 24.8169 3.49923 24.1012 3.49923H21.128C20.4122 3.49923 20.2111 3.5617 20.0543 3.70464C19.8532 3.86876 19.5631 4.38123 19.5631 8.02464C19.5631 11.668 19.8532 12.1604 20.0543 12.3446ZM25.0403 0.858521C26.5841 0.858521 27.2999 1.06499 27.8579 1.55629C28.7526 2.31229 29.4016 3.62311 29.4016 8.02464C29.4016 12.406 28.7526 13.7158 27.8579 14.4941C27.2999 14.9853 26.5841 15.1908 25.0403 15.1908H20.1878C18.6451 15.1908 17.9303 14.9853 17.3713 14.4941C16.4766 13.7158 15.8286 12.406 15.8286 8.02464C15.8286 3.62311 16.4766 2.31229 17.3713 1.55629C17.9303 1.06499 18.6451 0.858521 20.1878 0.858521H25.0403ZM10.5464 0.858944L5.80608 6.5713H4.84467V0.858944H1.2002V15.1901H4.84467V9.1093H5.85055L10.5464 15.1901H14.84L8.77925 7.59412L14.5933 0.858944H10.5464ZM42.4871 9.88743V7.21178L45.9759 13.2545V15.19H43.0239C42.197 15.19 41.8169 14.9857 41.4135 14.3313L36.0251 5.4859H35.8017V15.19H32.3139V0.858838H35.735C36.5842 0.858838 36.9421 1.04307 37.3444 1.71966L42.2637 9.88743H42.4871ZM45.6254 8.83729V6.16164H45.8488L50.7681 14.3294C51.1704 15.006 51.5283 15.1902 52.3775 15.1902H55.7985V0.85905H52.3108V10.5632H52.0874L46.699 1.71776C46.2956 1.0634 45.9155 0.85905 45.0885 0.85905H42.1365V2.79458L45.6254 8.83729ZM58.8937 15.1902H70.6329V12.5495H62.5382V9.08928H68.8445V6.5714H62.5382V3.49976H70.6329V0.85905H58.8937V15.1902ZM84.7253 14.4944C84.1662 14.9857 83.4727 15.19 81.9077 15.19H77.1229C75.5792 15.19 74.8645 14.9857 74.3054 14.4944C73.4107 13.7161 72.7627 12.4053 72.7627 8.02496C72.7627 3.62237 73.4107 2.3126 74.3054 1.55554C74.8645 1.06425 75.5792 0.858838 77.1229 0.858838H81.9077C83.4727 0.858838 84.1662 1.06425 84.7253 1.55554C85.5522 2.27237 85.9334 3.3566 85.9779 6.03966H82.4901C82.4223 4.25766 82.2212 3.86907 82.0422 3.70496C81.8855 3.56201 81.6843 3.49954 80.9686 3.49954H78.0621C77.3463 3.49954 77.1452 3.56201 76.9884 3.70496C76.7873 3.86907 76.4972 4.38049 76.4972 8.02496C76.4972 11.6684 76.7873 12.1607 76.9884 12.345C77.1452 12.4678 77.3463 12.5292 78.0621 12.5292H80.9686C81.6843 12.5493 81.8855 12.4678 82.0422 12.345C82.2212 12.1798 82.4223 11.8325 82.4901 9.84613H86.0001C85.9101 12.7335 85.5522 13.7775 84.7253 14.4944ZM95.8429 15.1908V3.52146H100.651V0.858521H87.4359V3.52146H92.1985V15.1908H95.8429Z" fill="#0A2B66"/>
</svg>
