<svg width="20" height="20" viewBox="0 0 20 20" fill="none" xmlns="http://www.w3.org/2000/svg">
<rect width="20" height="20" fill="white"/>
<path fill-rule="evenodd" clip-rule="evenodd" d="M15.4917 12.25V9.25C15.4917 4.75 14.5617 4.03675 12.0395 3.00625C11.7582 1.831 10.7195 1 9.49171 1C8.28271 1 7.22371 1.84825 6.94171 3.00625C4.42096 4.03675 3.49171 4.85147 3.49171 9.25V12.25C3.49171 13.2843 2 13.3554 2 14.5C2 14.6174 2 15.0745 2 15.25H17.001C17.001 15.026 17.001 14.8435 17.001 14.5C17.001 13.3971 15.4917 13.2843 15.4917 12.25Z" fill="#A3B6D9"/>
<path fill-rule="evenodd" clip-rule="evenodd" d="M11.7417 16H7.2417C7.0347 16 6.8667 16.168 6.8667 16.375C6.8667 17.8225 8.0442 19 9.4917 19C10.9392 19 12.1167 17.8225 12.1167 16.375C12.1167 16.168 11.9487 16 11.7417 16Z" fill="#A3B6D9"/>
</svg>
